<svg width="160" height="43" viewBox="0 0 160 43" fill="none" xmlns="http://www.w3.org/2000/svg">
<path opacity="0.3" d="M22.6826 43C10.1957 43 0 33.344 0 21.4819C0 9.65601 10.1957 0 22.6826 0C35.2076 0 45.3652 9.65601 45.3652 21.4819C45.4033 33.344 35.2076 43 22.6826 43ZM22.6826 0.904121C10.7303 0.904121 0.954654 10.1623 0.954654 21.4819C0.954654 32.8015 10.6921 42.0597 22.6826 42.0597C34.673 42.0597 44.4105 32.8377 44.4105 21.4819C44.4105 10.1262 34.673 0.904121 22.6826 0.904121Z" fill="white"/>
<path d="M35.5899 11.3558C35.0171 11.1388 31.5421 10.3431 30.4347 10.8133C29.8238 11.0664 28.1054 12.4045 26.6925 13.5256C26.1579 13.0555 25.3178 12.5854 23.9049 12.3684C21.9956 12.0429 19.1698 11.3919 14.893 13.815C10.4252 16.3827 7.56123 18.2271 6.56839 18.878C6.49202 18.9142 4.85001 20.1076 4.69727 21.6989C5.11731 20.5416 6.22471 19.7822 6.30108 19.746C7.21755 19.1312 10.3488 17.6484 14.3202 15.1531C17.6424 13.0917 19.8572 12.8023 21.5374 12.947C18.9025 13.598 17.3369 15.2977 16.4204 16.889C11.9526 19.4205 9.12686 21.3011 8.17221 21.9159C8.09583 21.9521 6.45383 23.1455 6.30108 24.7367C6.72113 23.5795 7.82853 22.82 7.9049 22.7838C8.82137 22.169 11.8381 20.7224 15.7331 18.2994C15.5039 18.878 15.3512 19.3843 15.2748 19.7098C13.4801 19.9268 12.0672 21.3734 12.0672 23.1455C12.0672 24.3389 12.6782 25.3877 13.671 26.0025C13.1746 26.328 12.7927 26.5812 12.5636 26.7258C12.4872 26.762 10.8452 27.9554 10.6925 29.5467C11.1125 28.3894 12.2199 27.6299 12.2963 27.5938C12.6782 27.3406 13.4037 26.9428 14.4347 26.4003C14.8548 26.545 15.2748 26.6173 15.7331 26.6173C16.7641 26.6173 17.7187 26.2195 18.3679 25.5324C18.9407 26.4727 19.5135 27.5938 20.1245 28.6425C18.2152 29.7998 16.955 30.6316 16.3822 31.0294C16.3059 31.0656 14.6639 32.259 14.5111 33.8503C14.9312 32.693 16.0386 31.9335 16.1149 31.8974C16.7259 31.4634 18.3679 30.6678 20.5827 29.402C21.1937 30.3785 21.881 31.2826 22.5684 31.9697C22.8739 32.259 23.2557 32.5122 23.6758 32.7292C22.7975 34.3204 20.0863 36.6711 18.9789 37.6114V37.6476C18.9789 37.6476 23.2939 35.2969 25.2032 33.3801C26.4634 33.778 27.7235 33.9226 28.4491 33.9949C29.671 34.1034 29.671 33.2716 29.671 32.8015C29.671 32.3675 29.8619 31.3911 29.4801 31.0294C29.4801 30.3061 29.0982 29.619 28.7545 29.1489C28.6018 28.4617 28.4872 27.7384 28.4491 26.979L29.9001 27.3406C29.9383 27.3406 29.9383 27.3406 29.9765 27.3768C30.0911 27.9193 30.6639 28.3894 31.4276 28.5341L31.5421 28.5702C32.4968 28.7149 33.3369 28.3171 33.4514 27.6299C33.566 26.9428 32.9168 26.2557 32.0004 26.111L31.8858 26.0748C31.2366 25.9663 30.6257 26.1472 30.282 26.4727C30.2438 26.4727 30.2056 26.4365 30.1674 26.4365L28.4872 26.0025C28.4872 25.9302 28.4872 25.8217 28.5254 25.7494C28.8691 23.037 30.0911 21.6627 32.3822 19.312C32.8405 18.8419 33.2223 18.4079 33.6042 18.0101C33.6424 18.0101 33.6806 17.9739 33.6806 17.9739C33.6806 17.9739 33.6806 17.9739 33.7187 17.9378C34.4443 17.5761 35.3989 16.9613 35.5135 16.0572C35.8954 15.8402 36.1627 15.5147 36.239 14.9722C36.5445 12.947 36.1627 11.5727 35.5899 11.3558ZM24.0958 13.4895C24.7832 13.815 25.165 14.2128 25.3942 14.5744C25.0123 14.8999 24.7832 15.0807 24.7832 15.0807C24.7832 15.0807 24.7068 15.1169 24.6304 15.1892C23.5994 15.0084 22.3393 14.8999 20.7736 15.1892C21.9574 14.2851 23.1794 13.7788 24.0958 13.4895ZM18.3297 20.614C18.0624 20.3608 17.7569 20.1438 17.3751 19.963C17.8715 18.4441 18.6352 17.2868 19.4371 16.3827C21.1173 15.804 22.4156 15.804 23.4849 15.9487C22.7211 16.4188 21.881 16.3827 20.9646 17.3953C20.1627 18.2994 19.0553 19.529 18.3297 20.614ZM28.3345 32.91C27.1889 32.8015 24.5159 32.3314 22.9502 30.9571C21.4228 29.5828 20.239 26.6896 19.1316 24.8452C19.0934 24.7367 19.0171 24.6644 18.9789 24.5921C18.9789 24.5559 19.0171 24.5198 19.0171 24.4836L23.3703 25.5685C23.1794 27.3044 22.8739 28.3171 23.5994 29.5105C24.3631 30.8124 27.9144 31.3911 27.9144 31.3911C28.6018 31.4634 29.0218 31.4634 29.0218 31.7527C29.0982 32.0059 29.251 32.9823 28.3345 32.91ZM27.9526 30.053C27.7999 30.3423 27.6471 30.5954 27.6471 30.5954C27.2271 30.5231 26.7307 30.4146 26.2724 30.27C26.2343 29.619 26.3106 28.751 26.998 28.1362C26.998 28.1362 25.5087 28.4979 24.6686 29.3658C24.6686 29.3658 24.6686 29.3658 24.6304 29.3297C23.6376 28.3171 24.0576 27.9916 24.2868 25.7855C24.2868 25.7494 24.2868 25.7494 24.2868 25.7132L27.2653 26.4727C27.3035 27.7746 27.6853 29.0042 28.029 29.9445C27.9908 30.0168 27.9526 30.0168 27.9526 30.053ZM30.893 19.1674C28.7927 21.4819 27.609 22.82 27.2653 25.4962C27.2653 25.4962 27.2653 25.4962 27.2653 25.5324L24.4395 24.8091C24.9741 23.1093 26.3488 21.7712 27.609 19.9991C28.7545 18.3356 29.7474 16.9975 30.3202 16.2742C30.9693 17.1421 31.9622 17.7931 31.9622 17.7931C31.6567 17.1783 31.8094 16.4188 32.0004 15.8402C32.0767 15.8764 32.1913 15.9125 32.2677 15.9487C32.5732 16.0572 33.1078 16.1657 33.6424 16.238C33.0696 16.8528 32.1149 17.8654 30.893 19.1674ZM30.893 15.6955C30.9312 15.6955 30.9693 15.6594 31.0457 15.6594L30.893 15.6955ZM35.0934 14.5744C34.788 16.2742 32.1913 15.0084 31.313 14.7191C30.4347 14.4298 29.3655 15.9125 29.06 16.3827C28.7545 16.8528 27.6471 18.0101 26.3106 19.8907C25.1269 21.5542 23.9431 22.9647 23.5612 24.5921L19.3607 23.5433C19.3989 23.3986 19.3989 23.2178 19.3989 23.0732C19.3989 22.3499 19.1698 21.6627 18.7498 21.1203C19.4753 20.0715 20.239 18.9504 21.1173 18.0101C21.9956 17.0698 22.9121 17.6484 23.5994 17.1421C24.3249 16.6358 25.2796 15.6232 25.2796 15.6232C25.2796 15.6232 29.4037 12.4407 30.3965 12.0429C30.6638 11.9344 31.0839 11.8982 31.5421 11.8982C31.7331 12.3322 32.0767 12.8385 32.344 13.164C32.8405 13.7788 33.8333 14.2128 34.597 13.7788C34.8643 13.6341 35.0553 13.381 35.208 13.1278C35.2462 13.4171 35.208 13.8873 35.0934 14.5744Z" fill="white"/>
<path d="M84.9633 20.614V26.7982H84.1996L84.0469 25.6047C83.0922 26.545 81.9466 27.0151 80.6101 27.0151C79.3118 27.0151 78.3953 26.5812 77.8225 25.7132C77.2497 24.8453 76.9824 23.4348 76.9824 21.4819C76.9824 19.4205 77.3261 17.9739 77.9753 17.1783C78.6244 16.3827 79.8082 15.9849 81.5266 15.9849C82.7867 15.9849 83.8177 16.0934 84.696 16.2742L84.5815 17.0336C83.5886 16.9251 82.5958 16.889 81.6029 16.889C80.7247 16.889 80.0373 17.0336 79.5409 17.2868C79.0445 17.54 78.7008 18.0101 78.4717 18.6611C78.2426 19.312 78.128 20.2885 78.128 21.5542C78.128 23.2178 78.3189 24.4113 78.739 25.1346C79.159 25.8217 79.8846 26.1834 80.8774 26.1834C81.2975 26.1834 81.6793 26.111 82.0612 25.9664C82.443 25.8217 82.7485 25.677 83.0158 25.5324C83.2449 25.3877 83.5504 25.1707 83.8941 24.9176V20.614H84.9633Z" fill="white"/>
<path d="M65.718 16.0934H66.9782C67.2836 16.0934 67.4364 16.238 67.4364 16.5273L67.8946 26.762H66.8254L66.4436 16.9613H66.0999L63.1595 25.3516C63.0832 25.5686 62.9304 25.6771 62.6631 25.6771H61.5939C61.3266 25.6771 61.1739 25.5686 61.0975 25.3516L58.1572 16.9613H57.8135L57.3934 26.7982H56.3242L56.7825 16.5635C56.7825 16.2742 56.9352 16.1295 57.2407 16.1295H58.539C58.7681 16.1295 58.9209 16.238 58.9973 16.4912L61.4794 23.471C61.6703 23.9773 61.823 24.4836 61.9376 24.9176H62.2813C62.3576 24.7006 62.5104 24.1943 62.7395 23.4348L65.2216 16.4912C65.3362 16.2019 65.4889 16.0934 65.718 16.0934Z" fill="white"/>
<path d="M73.1259 16.0934H72.0566V26.7982H73.1259V16.0934Z" fill="white"/>
<path d="M115.398 22.9647V26.7982H114.329V22.9647L110.549 16.1295H111.694L114.291 20.8671C114.444 21.1203 114.597 21.5181 114.826 22.0244H114.94C115.093 21.6989 115.246 21.3373 115.475 20.9033L118.072 16.1295H119.217L115.398 22.9647Z" fill="white"/>
<path d="M128.992 25.894L129.107 26.6535C128.267 26.8705 127.159 26.979 125.861 26.979C124.257 26.979 123.15 26.5812 122.501 25.7494C121.851 24.9176 121.546 23.5072 121.546 21.4458C121.546 19.4205 121.851 17.9739 122.501 17.1421C123.15 16.3104 124.257 15.9125 125.861 15.9125C127.045 15.9125 128.038 16.021 128.878 16.2019L128.763 16.9613C127.923 16.8528 126.968 16.8167 125.899 16.8167C124.715 16.8167 123.875 17.1421 123.379 17.8293C122.921 18.5164 122.691 19.7098 122.691 21.4458C122.691 23.1817 122.921 24.3751 123.379 25.0622C123.837 25.7494 124.677 26.0749 125.899 26.0749C127.159 26.0749 128.19 26.0025 128.992 25.894Z" fill="white"/>
<path d="M138.233 22.3861L136.629 17.7931C136.629 17.757 136.591 17.6123 136.515 17.3953C136.438 17.1783 136.4 17.0337 136.362 16.9252H135.904L135.598 17.7931L133.995 22.3861H138.233ZM138.539 23.254H133.613L132.353 26.7982H131.245L135.026 16.3827C135.102 16.2019 135.216 16.0934 135.446 16.0934H136.668C136.897 16.0934 137.011 16.2019 137.088 16.3827L140.868 26.7982H139.761L138.539 23.254Z" fill="white"/>
<path d="M144.954 16.0934V24.8091C144.954 25.5686 145.336 25.9302 146.138 25.9302H150.338L150.377 26.6897C149.231 26.762 147.742 26.7982 145.947 26.7982C145.26 26.7982 144.725 26.6173 144.381 26.2919C144.038 25.9664 143.847 25.4962 143.847 24.9538V16.0934H144.954Z" fill="white"/>
<path d="M154.577 16.0934V24.8091C154.577 25.5686 154.959 25.9302 155.761 25.9302H159.961L160 26.6897C158.854 26.762 157.365 26.7982 155.57 26.7982C154.883 26.7982 154.348 26.6173 154.004 26.2919C153.661 25.9664 153.47 25.4962 153.47 24.9538V16.0934H154.577Z" fill="white"/>
<path d="M108.601 16.9975H104.82V26.7982H103.751V16.9975H100.009V16.0934H108.601V16.9975Z" fill="white"/>
<path d="M96.8018 16.0934V26.7982H95.7326V21.5181H90.0428V26.7982H88.9736V16.0934H90.0428V20.6501H95.7326V16.0934H96.8018Z" fill="white"/>
</svg>
